<?xml version="1.0" encoding="utf-8"?>
<!-- Generator: Adobe Illustrator 26.4.0, SVG Export Plug-In . SVG Version: 6.00 Build 0)  -->
<svg version="1.1" id="Layer_1" xmlns="http://www.w3.org/2000/svg" xmlns:xlink="http://www.w3.org/1999/xlink" x="0px" y="0px"
	 viewBox="0 0 500 500" style="enable-background:new 0 0 500 500;" xml:space="preserve">
<style type="text/css">
	.st0{fill:#003100;}
	.st1{fill:#B9E500;}
</style>
<circle class="st0" cx="250" cy="250" r="250"/>
<g id="Layer_1_00000012435678687651413580000002767905993231831942_">
</g>
<path class="st1" d="M194.4,250h-55.5c0,30.7,12.5,58.4,32.6,78.6c20.1,20.1,47.9,32.6,78.6,32.6H474c-10,20.2-22.8,38.9-37.6,55.5
	H250C158.1,416.7,83.3,342,83.3,250H0c0-19.1,2.1-37.7,6.2-55.5H250c30.6,0,55.5,24.9,55.5,55.5H361c0-61.3-49.8-111.1-111.1-111.1
	H26c10-20.2,22.7-38.9,37.6-55.5H250c91.9,0,166.7,74.8,166.7,166.7H500c0,19.1-2.2,37.7-6.2,55.5H250
	C219.3,305.5,194.4,280.7,194.4,250z"/>
</svg>
