<?xml version="1.0" encoding="utf-8"?>
<!-- Generator: Adobe Illustrator 26.4.0, SVG Export Plug-In . SVG Version: 6.00 Build 0)  -->
<svg version="1.1" id="Layer_1" xmlns="http://www.w3.org/2000/svg" xmlns:xlink="http://www.w3.org/1999/xlink" x="0px" y="0px"
	 viewBox="0 0 500 500" style="enable-background:new 0 0 500 500;" xml:space="preserve">
<style type="text/css">
	.st0{fill:#003100;}
	.st1{fill:#FFFFFF;}
</style>
<circle class="st0" cx="250" cy="250" r="250"/>
<path class="st1" d="M89.4,265.3H60.6c4.3,58.7,36.1,110.1,82,142l14.7-25.1C119.4,355.2,93.7,313,89.4,265.3 M410.6,265.3
	c-4.3,48.3-30,90.6-67.3,116.9l14.7,25.1c45.9-31.8,77.7-83.2,82-142C440,265.3,410.6,265.3,410.6,265.3z M357.4,93.3l-14.7,25.1
	c37.3,26.3,63,68.5,67.3,116.9h28.8C435.1,176.6,403.3,125.2,357.4,93.3 M142,93.3c-45.9,31.8-77.1,83.2-82,142h28.8
	c4.3-48.3,30-90.6,67.3-116.9L142,93.3L142,93.3z M249.7,59.7c-29.4,0-56.9,6.7-82,18.4l14.7,25.1c20.8-9.8,43.4-14.7,67.3-14.7
	c23.9,0,47.1,5.5,67.3,14.7l14.7-25.1C307.2,66.4,279.1,59.7,249.7,59.7 M317,396.9c-20.8,9.8-43.4,14.7-67.3,14.7
	c-23.9,0-47.1-5.5-67.3-14.7l-14.7,25.1c25.1,12.2,52.6,18.4,82,18.4s56.9-6.7,82-18.4L317,396.9z M119.4,235.3h28.8
	c6.7-44.7,42.2-80.2,86.9-86.9v-28.8C174.4,126.4,126.1,174.7,119.4,235.3 M351.9,265.3c-6.7,44.7-42.2,80.2-86.9,86.9V381
	c60.6-6.7,108.9-55.1,115.7-115.7C380.6,265.3,351.9,265.3,351.9,265.3z M265,119.7v28.8c44.7,6.7,80.2,42.2,86.9,86.9h28.8
	C373.9,174.7,325.6,126.4,265,119.7 M148.1,265.3h-28.8c6.7,60.6,55.1,108.9,115.7,115.7v-28.8C190.3,345.5,154.8,310,148.1,265.3
	 M291.3,265.3c-6.1,17.1-22.6,29.4-41.6,29.4s-35.5-12.2-41.6-29.4h-30c6.7,33,36.1,58.1,71.6,58.1s64.9-25.1,71.6-58.1H291.3z
	 M249.7,177.2c-34.9,0-64.9,25.1-71.6,58.1h30c6.1-17.1,22.6-29.4,41.6-29.4s35.5,12.2,41.6,29.4h30
	C314.6,202.3,285.2,177.2,249.7,177.2"/>
</svg>
