<?xml version="1.0" encoding="utf-8"?>
<!-- Generator: Adobe Illustrator 25.2.1, SVG Export Plug-In . SVG Version: 6.00 Build 0)  -->
<svg version="1.1" xmlns="http://www.w3.org/2000/svg" xmlns:xlink="http://www.w3.org/1999/xlink" x="0px" y="0px"
	 viewBox="0 0 342.7 110.6" style="enable-background:new 0 0 342.7 110.6;" xml:space="preserve">
<style type="text/css">
	.st0{fill:#FFFFFF;}
	.st1{fill:#9ADA9A;}
</style>
<g id="Logo">
	<g>
		<g>
			<path id="Logotype_3_" class="st0" d="M137.1,75.4v-32l-11.8,31.5h-3.7l-11.8-31.7v32.3h-4.5V37.5h6.8l11.4,30.9L135,37.5h6.7
				v37.9H137.1z M171.2,48.4h-4.8l-7.6,21.3l-8-21.3h-5.1l10.8,27.1l-1.7,4.5c-0.8,2-2.1,2.7-4.1,2.7c-1.8,0-3.2-0.4-3.2-0.4v4
				c0.4,0.1,1.9,0.5,4.1,0.5c4.1,0,6-2.3,7.3-5.8L171.2,48.4z M192.2,73.2c1.8-1.8,2.9-4,3.2-6.8h-4.6c-0.2,1.8-0.9,3-1.8,4
				c-1.1,1.1-2.7,1.8-4.6,1.8c-2.1,0-3.5-0.7-4.7-1.8c-2.1-1.8-2.7-5.2-2.7-8.5c0-3.3,0.6-6.7,2.7-8.5c1.2-1,2.6-1.8,4.7-1.8
				c1.8,0,3.3,0.6,4.4,1.7c1,1,1.7,2.4,1.9,4.2h4.6c-0.2-2.9-1.4-5.2-3.2-7c-1.9-1.8-4.5-2.9-7.7-2.9c-4.9,0-7.9,2.2-9.8,5.1
				c-1.4,2.1-2.2,5.1-2.2,9.1c0,4.1,0.8,7,2.2,9.1c1.9,2.8,5,5.1,9.9,5.1C187.7,76.1,190.3,75.1,192.2,73.2 M222.2,60.7
				c0.1-3.6-1.2-7.1-3.4-9.5c-2-2.1-4.8-3.5-8.2-3.5c-4.7,0-8.3,2.4-10.2,5.7c-1.5,2.5-2.1,5.4-2.1,8.7c0,3.9,1.1,7.4,3.4,10.1
				c2.1,2.5,5.2,4.1,9,4.1c2.6,0,5-0.7,6.9-2c2.2-1.5,3.8-4,4.2-6.7h-4.4c-0.4,1.4-0.9,2.2-1.6,2.9c-1.1,1.2-2.9,1.8-5,1.8
				c-2.1,0-3.7-0.7-5-1.9c-1.7-1.7-2.6-4.3-2.6-6.8h19.1L222.2,60.7z M215.9,54c1.1,1.4,1.7,3.5,1.7,5.5h-14.4c0.1-4,2.5-8,7.4-8
				C213,51.5,214.8,52.5,215.9,54 M233.2,75.7c2.2,0,3.2-0.3,3.2-0.3v-3.9c0,0-0.4,0.1-1.9,0.1c-1.9,0-2.5-1-2.5-2.8v-32h-4.5v32.3
				C227.6,73.4,229.3,75.7,233.2,75.7 M240.8,42.2h5.3v-5.4h-5.3V42.2z M241.2,75.4h4.7V48.4h-4.7V75.4z M273.7,75.4V48.4h-4.5v14.1
				c0,2.8-0.5,5.7-2.2,7.5c-1.2,1.2-2.7,2-4.5,2c-4.3,0-5.8-2.4-5.8-6.5V48.4h-4.5v17.8c0,6.3,3.1,10,9.3,10c3.2,0,6.6-1.7,8-4.8
				l0.4,4.1H273.7z M318.7,75.4V57.6c0-6-2.9-10-9-10c-3.4,0-6.9,1.8-8.3,5.1c-1.2-3.3-4.1-5.1-8.1-5.1c-3,0-6.2,1.5-7.6,4.5
				l-0.4-3.9h-4v27.1h4.5V61c0-2.2,0.5-5.1,1.8-6.8c1.1-1.4,2.7-2.4,4.6-2.4c4.3,0,5.5,2.6,5.5,6.4v17.2h4.5V61
				c0-2.8,0.5-5.6,2.3-7.4c1.1-1.1,2.4-1.8,4.1-1.8c4.3,0,5.5,2.6,5.5,6.4v17.2H318.7z"/>
		</g>
		<path class="st1" d="M28.7,58H24c0.7,9.6,5.9,18,13.4,23.2l2.4-4.1C33.6,72.8,29.4,65.9,28.7,58 M81.2,58
			c-0.7,7.9-4.9,14.8-11,19.1l2.4,4.1C80.1,76,85.2,67.6,86,58H81.2z M72.6,30L70.2,34c6.1,4.3,10.3,11.2,11,19.1H86
			C85.2,43.5,80.1,35.1,72.6,30 M37.4,30C29.8,35.1,24.7,43.5,24,53.1h4.7c0.7-7.9,4.9-14.8,11-19.1L37.4,30L37.4,30z M55,24.5
			c-4.8,0-9.3,1.1-13.4,3l2.4,4.1c3.4-1.6,7.1-2.4,11-2.4c3.9,0,7.7,0.9,11,2.4l2.4-4.1C64.3,25.6,59.7,24.5,55,24.5 M66,79.5
			c-3.4,1.6-7.1,2.4-11,2.4c-3.9,0-7.7-0.9-11-2.4l-2.4,4.1c4.1,2,8.6,3,13.4,3c4.8,0,9.3-1.1,13.4-3L66,79.5z M33.6,53.1h4.7
			C39.4,45.8,45.2,40,52.5,39v-4.7C42.6,35.3,34.7,43.2,33.6,53.1 M71.6,58c-1.1,7.3-6.9,13.1-14.2,14.2v4.7
			c9.9-1.1,17.8-9,18.9-18.9H71.6z M57.4,34.2V39c7.3,1.1,13.1,6.9,14.2,14.2h4.7C75.2,43.2,67.3,35.3,57.4,34.2 M38.3,58h-4.7
			c1.1,9.9,9,17.8,18.9,18.9v-4.7C45.2,71.1,39.4,65.3,38.3,58 M61.8,58c-1,2.8-3.7,4.8-6.8,4.8c-3.1,0-5.8-2-6.8-4.8h-4.9
			c1.1,5.4,5.9,9.5,11.7,9.5c5.8,0,10.6-4.1,11.7-9.5H61.8z M55,43.6c-5.7,0-10.6,4.1-11.7,9.5h4.9c1-2.8,3.7-4.8,6.8-4.8
			c3.1,0,5.8,2,6.8,4.8h4.9C65.5,47.7,60.7,43.6,55,43.6"/>
	</g>
</g>
<g id="Guide">
</g>
</svg>
